<svg width="34" height="34" viewBox="0 0 34 34" fill="none" xmlns="http://www.w3.org/2000/svg">
<circle cx="17" cy="17" r="17" fill="#7867BF"/>
<path d="M21.2855 12.723L25.6027 17.0402C25.8559 17.2934 26 17.6414 26 18C26 18.3586 25.8559 18.7066 25.6027 18.9598L21.2855 23.277C21.0605 23.502 20.7582 23.625 20.4418 23.625C19.7844 23.625 19.25 23.0906 19.25 22.4332V20.25H14.75C14.1277 20.25 13.625 19.7473 13.625 19.125V16.875C13.625 16.2527 14.1277 15.75 14.75 15.75H19.25V13.5668C19.25 12.9094 19.7844 12.375 20.4418 12.375C20.7582 12.375 21.0605 12.5016 21.2855 12.723ZM13.625 12.375H11.375C10.7527 12.375 10.25 12.8777 10.25 13.5V22.5C10.25 23.1223 10.7527 23.625 11.375 23.625H13.625C14.2473 23.625 14.75 24.1277 14.75 24.75C14.75 25.3723 14.2473 25.875 13.625 25.875H11.375C9.51172 25.875 8 24.3633 8 22.5V13.5C8 11.6367 9.51172 10.125 11.375 10.125H13.625C14.2473 10.125 14.75 10.6277 14.75 11.25C14.75 11.8723 14.2473 12.375 13.625 12.375Z" fill="white"/>
</svg>
