<svg width="45" height="29" viewBox="0 0 45 29" fill="none" xmlns="http://www.w3.org/2000/svg">
<rect width="40" height="24" rx="2" fill="#7867BF"/>
<rect x="5" y="7" width="30" height="4" rx="2" fill="white"/>
<rect x="5" y="13" width="20" height="4" rx="2" fill="white"/>
<circle cx="38" cy="22" r="6.8" fill="white" stroke="#D5D5D5" stroke-width="0.4"/>
<g clip-path="url(#clip0_351_5577)">
<path d="M41.8531 20.3523C42.0484 20.157 42.0484 19.8398 41.8531 19.6445L40.3531 18.1445C40.1578 17.9492 39.8406 17.9492 39.6453 18.1445C39.45 18.3398 39.45 18.657 39.6453 18.8523L40.2922 19.4992H35.5C35.2234 19.4992 35 19.7226 35 19.9992C35 20.2757 35.2234 20.4991 35.5 20.4991H40.2922L39.6453 21.146C39.45 21.3413 39.45 21.6585 39.6453 21.8538C39.8406 22.0491 40.1578 22.0491 40.3531 21.8538L41.8531 20.3538V20.3523ZM36.6453 25.8521C36.8406 26.0474 37.1578 26.0474 37.3531 25.8521C37.5484 25.6568 37.5484 25.3396 37.3531 25.1443L36.7078 24.499H41.5C41.7766 24.499 42 24.2756 42 23.999C42 23.7225 41.7766 23.4991 41.5 23.4991H36.7078L37.3547 22.8522C37.55 22.6569 37.55 22.3397 37.3547 22.1444C37.1594 21.9491 36.8422 21.9491 36.6469 22.1444L35.1469 23.6444C34.9516 23.8397 34.9516 24.1568 35.1469 24.3521L36.6469 25.8521H36.6453Z" fill="#47467B"/>
</g>
<defs>
<clipPath id="clip0_351_5577">
<rect width="7" height="7.99976" fill="white" transform="translate(35 18)"/>
</clipPath>
</defs>
</svg>
